<svg width="56" height="56" viewBox="0 0 56 56" fill="none" xmlns="http://www.w3.org/2000/svg">
<path d="M51.6797 22.5312H37.6797C37.4391 22.5312 37.2422 22.7281 37.2422 22.9688V25.5938C37.2422 25.8344 37.4391 26.0312 37.6797 26.0312H51.6797C51.9203 26.0312 52.1172 25.8344 52.1172 25.5938V22.9688C52.1172 22.7281 51.9203 22.5312 51.6797 22.5312ZM44.3516 29.9688H37.6797C37.4391 29.9688 37.2422 30.1656 37.2422 30.4062V33.0312C37.2422 33.2719 37.4391 33.4688 37.6797 33.4688H44.3516C44.5922 33.4688 44.7891 33.2719 44.7891 33.0312V30.4062C44.7891 30.1656 44.5922 29.9688 44.3516 29.9688ZM26.1024 17.6367H23.7344C23.3953 17.6367 23.1219 17.9102 23.1219 18.2492V31.8117C23.1219 32.0086 23.2149 32.1891 23.3735 32.3039L31.5164 38.243C31.7899 38.4398 32.1727 38.3852 32.3695 38.1117L33.775 36.1922V36.1867C33.9719 35.9133 33.9117 35.5305 33.6383 35.3336L26.7094 30.3242V18.2492C26.7149 17.9102 26.4359 17.6367 26.1024 17.6367Z" fill="#FBC840"/>
<path d="M44.0125 36.854H40.8516C40.5453 36.854 40.2555 37.0126 40.0914 37.2751C39.3969 38.3743 38.5875 39.3915 37.6578 40.3212C36.0555 41.9235 34.1906 43.1813 32.118 44.0563C29.9688 44.9642 27.6883 45.4235 25.3367 45.4235C22.9797 45.4235 20.6992 44.9642 18.5555 44.0563C16.4828 43.1813 14.618 41.9235 13.0156 40.3212C11.4133 38.7188 10.1555 36.854 9.28048 34.7814C8.37266 32.6376 7.91329 30.3571 7.91329 28.0001C7.91329 25.6431 8.37266 23.3681 9.28048 21.2189C10.1555 19.1462 11.4133 17.2814 13.0156 15.679C14.618 14.0767 16.4828 12.8189 18.5555 11.9439C20.6992 11.036 22.9852 10.5767 25.3367 10.5767C27.6938 10.5767 29.9742 11.036 32.118 11.9439C34.1906 12.8189 36.0555 14.0767 37.6578 15.679C38.5875 16.6087 39.3969 17.6259 40.0914 18.7251C40.2555 18.9876 40.5453 19.1462 40.8516 19.1462H44.0125C44.3899 19.1462 44.6305 18.7524 44.4609 18.4189C40.8953 11.3259 33.6656 6.71573 25.5938 6.62276C13.7758 6.47511 3.95938 16.1493 3.93751 27.9564C3.91563 39.7853 13.5024 49.3829 25.3313 49.3829C33.507 49.3829 40.857 44.7564 44.4609 37.5814C44.6305 37.2478 44.3844 36.854 44.0125 36.854Z" fill="#FBC840"/>
</svg>
