<svg width="37" height="36" viewBox="0 0 37 36" fill="none" xmlns="http://www.w3.org/2000/svg">
<path d="M6.08705 31.4943L7.60016 26.1189L7.71571 25.7084L7.49946 25.3408C5.8844 22.5958 5.3213 19.3575 5.91488 16.2284C6.50846 13.0992 8.21832 10.2922 10.7265 8.32925C13.2346 6.36632 16.3703 5.38112 19.5504 5.55691C22.7305 5.73269 25.7385 7.05748 28.015 9.28489C30.2915 11.5123 31.6816 14.4907 31.9267 17.6662C32.1718 20.8417 31.2552 23.9982 29.3474 26.5485C27.4397 29.0989 24.6705 30.8695 21.5551 31.5312C18.4396 32.1929 15.1899 31.7005 12.4102 30.1457L12.0601 29.9498L11.6717 30.0503L6.08705 31.4943Z" stroke="white" stroke-width="2"/>
<path d="M14.8637 12.081L13.9457 12.0315C13.6576 12.0155 13.3746 12.1124 13.1567 12.3015C12.4927 12.8462 12.0125 13.582 11.7812 14.409C11.6614 15.3011 11.7315 16.2085 11.9869 17.0716C12.2423 17.9348 12.6772 18.7342 13.2632 19.4175C15.1926 22.2229 18.0248 24.2827 21.2882 25.254C21.8365 25.4343 22.4179 25.4911 22.9908 25.4203C23.5636 25.3495 24.1137 25.1529 24.6017 24.8445C24.9302 24.6317 25.2134 24.3559 25.4348 24.033C25.6562 23.7102 25.8115 23.3467 25.8917 22.9635L26.0417 22.2795C26.0642 22.174 26.0502 22.064 26.002 21.9675C25.9537 21.871 25.8741 21.7937 25.7762 21.7485L22.6727 20.3175C22.5749 20.2723 22.4646 20.2616 22.36 20.2872C22.2553 20.3128 22.1625 20.3732 22.0967 20.4585L20.8787 22.038C20.8341 22.0963 20.7722 22.139 20.7019 22.16C20.6316 22.181 20.5564 22.1793 20.4872 22.155C18.2829 21.3658 16.4458 19.7935 15.3257 17.7375C15.293 17.675 15.2798 17.6041 15.2878 17.5341C15.2959 17.464 15.3247 17.398 15.3707 17.3445L16.5347 15.9945C16.593 15.9271 16.6313 15.8447 16.6451 15.7567C16.6589 15.6686 16.6476 15.5785 16.6127 15.4965L15.2747 12.3675C15.2396 12.2862 15.1826 12.2163 15.11 12.1657C15.0373 12.1151 14.952 12.0858 14.8637 12.081Z" fill="white"/>
</svg>
