<svg width="52" height="52" viewBox="0 0 52 52" fill="none" xmlns="http://www.w3.org/2000/svg">
<path d="M25.9767 4C13.8358 4.0132 4.00003 13.8586 4.00003 26C4.00623 29.4461 4.82189 32.8426 6.3813 35.9157C7.9407 38.9888 10.2002 41.6526 12.9778 43.6924C12.8612 42.7988 12.8841 41.8761 13.0293 40.9636C11.5776 39.7034 10.3162 38.2396 9.28443 36.6177H14.7602C15.2803 35.8059 15.8162 35.0029 16.7512 34.4177C16.2034 32.1737 15.8686 29.7026 15.807 27.1H16.3992C16.5749 26.3296 16.8609 25.5886 17.2484 24.9H15.8215C15.9148 22.2886 16.2804 19.8163 16.8612 17.5828H24.9V21.4935C25.678 21.6125 26.4253 21.8821 27.1 22.2873V17.5828H35.5458C35.6602 18.0215 35.7637 18.4716 35.8605 18.9279C36.6008 18.8145 37.3527 18.7972 38.0974 18.8764C38.0122 18.4434 37.9185 18.0121 37.8163 17.5828H43.9279C44.8429 19.5311 45.4322 21.6162 45.6725 23.7551C45.9277 25.9767 45.9325 28.5841 45.1242 31.1344C44.862 32.1087 44.5258 33.0616 44.1184 33.9847C44.6147 34.507 45.2157 35.0007 45.8199 35.5045C47.2484 32.5393 47.9934 29.2914 48.0001 26C48.0001 13.8498 38.1502 4 26 4H25.9767ZM27.1 6.50008C29.418 6.89432 31.6329 8.80392 33.378 11.9724C33.9403 12.9936 34.4428 14.1402 34.8775 15.3824H27.1V6.50008ZM24.9 6.58676V15.3824H17.53C17.9648 14.1402 18.4672 12.9936 19.0296 11.9724C20.6716 8.99004 22.7313 7.12444 24.9 6.58676ZM19.8312 7.18208C18.8087 8.21696 17.8908 9.47888 17.1019 10.9111C16.3627 12.2531 15.7269 13.7566 15.2046 15.3824H9.28443C11.7198 11.5517 15.4334 8.61956 19.8312 7.18208ZM32.7716 7.3858C36.9068 8.88752 40.3925 11.7277 42.7157 15.3824H37.2003C36.6793 13.7566 36.0444 12.2531 35.3052 10.9111C34.5677 9.57128 33.715 8.38152 32.7716 7.3858ZM8.07311 17.5828H14.5886C14.0408 19.8541 13.7051 22.3172 13.6193 24.9005H6.23171C6.36837 22.3656 6.99348 19.881 8.07267 17.5833L8.07311 17.5828ZM6.23171 27.1H13.607C13.6638 29.6767 13.9678 32.1398 14.4844 34.4172H8.07267C6.99348 32.1195 6.36837 29.6349 6.23171 27.1Z" fill="#045AA6"/>
<path d="M37.44 20.6184C33.7946 20.6184 30.84 23.5734 30.84 27.2184C30.84 30.8634 33.7946 33.8184 37.44 33.8184C41.0846 33.8184 44.04 30.8634 44.04 27.2184C44.04 23.5734 41.0846 20.6184 37.44 20.6184ZM37.44 34.7965C30.1492 34.7965 26.88 38.0662 26.88 45.3565V46.2365C26.913 47.9701 27.6795 48.0212 29.3 47.9965H45.58C47.6458 47.9948 48.0141 47.9987 48 46.2365V45.3565C48 38.0662 44.73 34.7965 37.44 34.7965ZM23.36 23.0916C20.3737 23.0916 17.952 25.5134 17.952 28.5001C17.952 31.4864 20.3737 33.9073 23.36 33.9073C26.3463 33.9073 28.7676 31.4864 28.7676 28.4997C28.7676 25.5134 26.3463 23.0916 23.36 23.0916ZM23.36 34.7081C17.387 34.7081 14.7079 37.3877 14.7079 43.3603V44.0814C14.7351 45.5017 15.363 45.5435 16.6905 45.5233H25.1046C24.8899 41.9646 25.9411 38.185 28.5591 35.7821C27.2338 35.0579 25.5121 34.7081 23.36 34.7081Z" fill="#045AA6"/>
</svg>
